<svg id="Layer_1" data-name="Layer 1" xmlns="http://www.w3.org/2000/svg" width="17.99" height="13.97"><defs><style>.cls-1{fill:#d22856}</style></defs><path class="cls-1" d="M14.91 1.81c1.2-1 .9-1.81-.66-1.81H3.73c-1.56 0-1.85.82-.66 1.81l3.75 3.12a3.54 3.54 0 004.35 0z"/><path class="cls-1" d="M11.91 7L9.7 8.88a1 1 0 01-.26.12h-.1a1.13 1.13 0 01-.34.14 1.2 1.2 0 01-.33-.06h-.1a1.05 1.05 0 01-.23-.14L6.08 7l-3.9-3.2C1 2.8 0 3.26 0 4.82v6.32A2.84 2.84 0 002.83 14h12.32A2.84 2.84 0 0018 11.13V4.82c0-1.56-1-2-2.18-1z"/></svg>